<?xml version="1.0" encoding="UTF-8"?>
<svg id="GLIPY" xmlns="http://www.w3.org/2000/svg" viewBox="0 0 64 64">
  <defs>
    <style>
      .cls-1 {
        fill: #fff;
      }

      .cls-2 {
        fill: #007580;
      }
    </style>
  </defs>
  <circle class="cls-2" cx="32" cy="32" r="32"/>
  <path class="cls-1" d="M26.83,34.1v-3.97c0-.63.52-1.14,1.15-1.13.62,0,1.12.51,1.13,1.13v3.97c0,3.76,3.06,6.81,6.82,6.81,15.47,1.52,17.64-20.61,1.99-21.58h-19.9c-14.3.59-14.32,20.99,0,21.58h1.99c3.76,0,6.81-3.05,6.82-6.81ZM20.03,37.75c-.38.28-.91.2-1.19-.17l-7.63-10.18c-.28-.38-.2-.91.17-1.19.37-.28.9-.2,1.19.17l7.63,10.18c.28.38.2.91-.17,1.19ZM21.52,31.81c-.37.28-.91.2-1.19-.17l-3.82-5.09c-.28-.38-.2-.91.17-1.19.37-.28.9-.2,1.19.17l3.82,5.09c.28.38.2.91-.17,1.19h0Z"/>
  <path class="cls-1" d="M49.32,15.33v24.98c0,3.11-2.52,5.62-5.63,5.62h-12.95s-.08-.03-.08-.08c0,0,0,0,0,0v-1.93h.53c.47,0,.85-.38.85-.85,0-.47-.38-.85-.85-.85h-6.47c-.47.01-.84.4-.83.87,0,.45.38.82.83.83h.53v1.93c0,3.02,2.45,5.47,5.48,5.48h12.95c6.09,0,11.02-4.94,11.03-11.03V15.33c-.02-1.49-1.24-2.68-2.73-2.66-1.46.02-2.65,1.2-2.66,2.66Z"/>
</svg>